<svg width="72" height="62" viewBox="0 0 72 62" fill="none" xmlns="http://www.w3.org/2000/svg">
<path d="M12.4465 38.8566L8.71875 46.8061C8.54631 47.1723 8.62187 47.6121 8.90862 47.8989C9.09462 48.0868 9.34262 48.1837 9.5945 48.1837C9.73206 48.1837 9.87156 48.1546 10.0014 48.0946L23.126 42.0127C24.6314 42.1968 26.0109 42.2859 27.3304 42.2859C42.4022 42.2859 54.6627 32.7999 54.6627 21.142C54.6646 9.486 42.4041 0 27.3323 0C12.2605 0 0 9.486 0 21.142C0 28.3747 4.63256 34.937 12.4465 38.8566ZM27.3323 1.9375C41.3346 1.9375 52.7271 10.5516 52.7271 21.142C52.7271 31.7324 41.3346 40.3484 27.3323 40.3484C26.0129 40.3484 24.6276 40.2535 23.095 40.0578C22.9167 40.0365 22.7307 40.0656 22.5661 40.1392L11.6037 45.2174L14.6087 38.8101C14.7192 38.5776 14.7289 38.3102 14.6417 38.068C14.5545 37.8258 14.3724 37.6262 14.1379 37.5197C6.49837 33.9876 1.9375 27.8651 1.9375 21.142C1.9375 10.5516 13.33 1.9375 27.3323 1.9375Z" fill="#EEE2DE"/>
<path d="M14.0469 25.823C14.3607 25.8986 14.6804 25.9373 14.9982 25.9373C16.1936 25.9373 17.3038 25.3987 18.0439 24.459C18.7841 23.5193 19.0456 22.2987 18.7589 21.111C18.4276 19.7354 17.3251 18.6329 15.9476 18.2997C14.446 17.9354 12.8863 18.476 11.9524 19.6656C11.2123 20.6053 10.9507 21.8259 11.2375 23.0117C11.5669 24.3873 12.6693 25.4898 14.0469 25.823ZM13.4734 20.8669C13.8434 20.3961 14.3995 20.1248 14.9982 20.1248C15.1609 20.1248 15.3276 20.1461 15.4922 20.1849C16.1587 20.3457 16.7129 20.8998 16.8737 21.5663C17.0209 22.1805 16.895 22.7831 16.5191 23.2597C16.0464 23.8603 15.2694 24.1219 14.5002 23.9397C13.8337 23.7789 13.2796 23.2248 13.1188 22.5583C12.9716 21.9441 13.0975 21.3435 13.4734 20.8669Z" fill="#EEE2DE"/>
<path d="M25.4801 25.823C25.7939 25.8986 26.1136 25.9373 26.4314 25.9373C27.6268 25.9373 28.7351 25.3987 29.4752 24.459C30.2153 23.5193 30.4769 22.2987 30.1901 21.111C29.8588 19.7354 28.7564 18.6329 27.3788 18.2997C25.8792 17.9354 24.3195 18.476 23.3837 19.6656C22.6436 20.6053 22.382 21.824 22.6668 23.0117C22.9981 24.3854 24.1025 25.4898 25.4801 25.823ZM24.9066 20.8669C25.2766 20.3961 25.8327 20.1248 26.4314 20.1248C26.5941 20.1248 26.7607 20.1461 26.9254 20.1849C27.5919 20.3457 28.148 20.8998 28.3069 21.5663C28.4561 22.1805 28.3301 22.7831 27.9523 23.2597C27.4815 23.8623 26.7046 24.1238 25.9334 23.9397C25.2669 23.7789 24.7109 23.2248 24.5501 22.5583C24.4028 21.9441 24.5287 21.3435 24.9066 20.8669Z" fill="#EEE2DE"/>
<path d="M36.9113 25.823C37.2252 25.8986 37.5449 25.9373 37.8626 25.9373C39.0581 25.9373 40.1682 25.3987 40.9084 24.459C41.6485 23.5193 41.9101 22.2987 41.6233 21.111C41.292 19.7354 40.1896 18.6329 38.812 18.2997C37.3124 17.9354 35.7507 18.476 34.8169 19.6656C34.0767 20.6053 33.8152 21.824 34.1019 23.0117C34.4332 24.3873 35.5357 25.4898 36.9113 25.823ZM36.3378 20.8669C36.7079 20.3961 37.2639 20.1248 37.8626 20.1248C38.0254 20.1248 38.192 20.1461 38.3567 20.1849C39.0232 20.3457 39.5773 20.8998 39.7381 21.5663C39.8854 22.1805 39.7594 22.7831 39.3836 23.2597C38.9108 23.8603 38.1319 24.1219 37.3647 23.9397C36.6982 23.7789 36.1421 23.2248 35.9813 22.5583C35.836 21.9441 35.9619 21.3435 36.3378 20.8669Z" fill="#EEE2DE"/>
<path d="M58.0494 23.6724C57.5302 23.5271 56.9974 23.8138 56.8443 24.3253C56.6912 24.8387 56.9819 25.3774 57.4953 25.5304C64.9489 27.7508 69.9554 33.2979 69.9554 39.3274C69.9554 44.5257 66.2412 49.414 60.2621 52.0858C59.8474 52.2718 59.6169 52.7194 59.7079 53.165L60.8511 58.7082L54.7092 54.0679C54.5019 53.9129 54.2442 53.8547 53.9865 53.8819C52.7233 54.064 51.4755 54.157 50.2742 54.157C43.1811 54.157 36.3184 50.5339 33.5866 45.3452C33.3386 44.8706 32.7496 44.6904 32.2787 44.9384C31.806 45.1883 31.6239 45.7734 31.8738 46.2462C34.9254 52.0451 42.4932 56.0945 50.2762 56.0945C51.4406 56.0945 52.6457 56.0151 53.8625 55.8562L61.7384 61.8043C61.9089 61.9341 62.1143 62 62.3216 62C62.5018 62 62.682 61.9516 62.8389 61.8508C63.1799 61.6357 63.3524 61.2308 63.271 60.8375L61.7617 53.5254C68.0314 50.4699 71.8929 45.0895 71.8929 39.3293C71.8929 32.3252 66.4601 26.1814 58.0494 23.6724Z" fill="#EEE2DE"/>
</svg>
