<svg width="125" height="125" viewBox="0 0 125 125" fill="none" xmlns="http://www.w3.org/2000/svg">
<path d="M62.5 62.5C53.9062 62.5 46.5495 59.4401 40.4297 53.3203C34.3099 47.2005 31.25 39.8438 31.25 31.25C31.25 22.6562 34.3099 15.2995 40.4297 9.17969C46.5495 3.0599 53.9062 0 62.5 0C71.0938 0 78.4505 3.0599 84.5703 9.17969C90.6901 15.2995 93.75 22.6562 93.75 31.25C93.75 39.8438 90.6901 47.2005 84.5703 53.3203C78.4505 59.4401 71.0938 62.5 62.5 62.5ZM0 109.375V103.125C0 98.6979 1.13932 94.6289 3.41797 90.918C5.69661 87.207 8.72396 84.375 12.5 82.4219C20.5729 78.3854 28.776 75.3581 37.1094 73.3398C45.4427 71.3216 53.9062 70.3125 62.5 70.3125C71.0938 70.3125 79.5573 71.3216 87.8906 73.3398C96.224 75.3581 104.427 78.3854 112.5 82.4219C116.276 84.375 119.303 87.207 121.582 90.918C123.861 94.6289 125 98.6979 125 103.125V109.375C125 113.672 123.47 117.35 120.41 120.41C117.35 123.47 113.672 125 109.375 125H15.625C11.3281 125 7.64974 123.47 4.58984 120.41C1.52995 117.35 0 113.672 0 109.375ZM15.625 109.375H109.375V103.125C109.375 101.693 109.017 100.391 108.301 99.2188C107.585 98.0469 106.641 97.1354 105.469 96.4844C98.4375 92.9688 91.3411 90.332 84.1797 88.5742C77.0182 86.8164 69.7917 85.9375 62.5 85.9375C55.2083 85.9375 47.9818 86.8164 40.8203 88.5742C33.6589 90.332 26.5625 92.9688 19.5312 96.4844C18.3594 97.1354 17.4154 98.0469 16.6992 99.2188C15.9831 100.391 15.625 101.693 15.625 103.125V109.375ZM62.5 46.875C66.7969 46.875 70.4753 45.3451 73.5352 42.2852C76.5951 39.2253 78.125 35.5469 78.125 31.25C78.125 26.9531 76.5951 23.2747 73.5352 20.2148C70.4753 17.1549 66.7969 15.625 62.5 15.625C58.2031 15.625 54.5247 17.1549 51.4648 20.2148C48.4049 23.2747 46.875 26.9531 46.875 31.25C46.875 35.5469 48.4049 39.2253 51.4648 42.2852C54.5247 45.3451 58.2031 46.875 62.5 46.875Z" fill="#EEE2DE"/>
</svg>
