<svg width="21" height="20" viewBox="0 0 21 20" fill="none" xmlns="http://www.w3.org/2000/svg">
<path d="M7.61208 19.7784V13.1039H5.54282V10.0368H7.61208V8.71529C7.61208 5.29859 9.15775 3.71529 12.5117 3.71529C12.8471 3.71529 13.3105 3.75042 13.7395 3.80144C14.0609 3.83451 14.3798 3.889 14.6939 3.96454V6.74557C14.5123 6.72863 14.3301 6.71858 14.1477 6.71546C13.9434 6.71015 13.739 6.70764 13.5346 6.70793C12.9433 6.70793 12.4816 6.78822 12.1337 6.96638C11.8997 7.08373 11.7031 7.26387 11.5657 7.48662C11.35 7.83791 11.2529 8.31884 11.2529 8.95199V10.0368H14.5308L14.2079 11.7958L13.9679 13.1039H11.2529V20C16.2228 19.3995 20.0736 15.1681 20.0736 10.0368C20.0736 4.49398 15.5796 0 10.0368 0C4.49398 0 0 4.49398 0 10.0368C0 14.7441 3.24021 18.6935 7.61208 19.7784Z" fill="#0866FF"/>
</svg>
