<svg width="68" height="94" viewBox="0 0 68 94" fill="none" xmlns="http://www.w3.org/2000/svg">
<path d="M34.5732 11.3237C19.4177 11.3237 7.08668 23.6523 7.08668 38.8078C7.08668 48.9383 12.5857 58.1316 21.4862 62.9551L20.9763 67.1618C20.9763 69.6143 22.2074 71.7813 24.0816 73.0855C22.7629 73.8498 21.857 75.2981 21.857 76.9767C21.857 78.7033 22.8133 80.1875 24.1955 80.9314C23.4684 81.7017 23.0137 82.7324 23.0137 83.8723C23.0137 86.2408 24.9419 88.1702 27.3116 88.1702H27.4532C27.452 88.1834 27.446 88.1942 27.446 88.2074C27.446 91.1639 30.7708 93.4796 35.0123 93.4796C36.6741 93.4796 38.2471 93.1184 39.5598 92.4381C40.0193 92.2018 40.1981 91.6366 39.9594 91.1771C39.7218 90.7199 39.1602 90.5364 38.6983 90.7775C37.6652 91.3115 36.3562 91.6078 35.0123 91.6078C31.9251 91.6078 29.3178 90.0504 29.3178 88.2062C29.3178 88.193 29.3106 88.1822 29.3094 88.169H41.8323C44.2009 88.169 46.1303 86.2408 46.1303 83.8711C46.1303 81.7689 44.61 80.0219 42.6135 79.6524C42.4995 79.602 42.3747 79.5732 42.2415 79.5732H26.1549C24.8171 79.5732 23.7288 78.4081 23.7288 76.9755C23.7288 75.5416 24.8171 74.3766 26.1549 74.3766H42.989C44.3269 74.3766 45.4151 75.5416 45.4151 76.9755C45.4151 77.7278 45.4151 77.7278 44.8908 78.4525C44.5884 78.8701 44.682 79.4556 45.1008 79.758C45.5171 80.0591 46.1027 79.9668 46.4062 79.548C47.2209 78.4237 47.2869 78.2305 47.2869 76.9743C47.2869 74.5098 45.3587 72.5036 42.989 72.5036H28.1911C25.2442 72.5036 22.8469 70.1051 22.8385 67.2722L23.4192 62.5387L22.9177 61.5932C14.3063 57.1837 8.95847 48.4523 8.95847 38.8078C8.95847 24.6842 20.4484 13.1943 34.5732 13.1943C48.6968 13.1943 60.1855 24.6842 60.1855 38.8078C60.1855 48.4511 54.8365 57.1837 46.2274 61.5968L45.7259 62.5435L46.2982 67.1618C46.2982 68.5968 45.7307 69.9479 44.7 70.963C44.3317 71.3253 44.3281 71.9181 44.6904 72.2852C45.0528 72.6524 45.6455 72.6572 46.0127 72.2948C47.4045 70.9234 48.1712 69.1008 48.1628 67.0478L47.6613 62.9539C56.5583 58.1292 62.0573 48.9371 62.0573 38.8066C62.0573 23.6535 49.7275 11.3237 34.5732 11.3237ZM27.3128 81.4471H41.8335C43.1714 81.4471 44.2597 82.5354 44.2597 83.8732C44.2597 85.2111 43.1714 86.2993 41.8335 86.2993H27.3128C25.9749 86.2993 24.8867 85.2111 24.8867 83.8732C24.8867 82.5357 25.9749 81.4471 27.3128 81.4471Z" fill="#EEE2DE"/>
<path d="M45.9418 53.3247C46.2958 53.2383 46.5129 52.8819 46.4265 52.5267C46.3402 52.1728 45.9778 51.9556 45.6298 52.042C44.1876 52.396 42.5702 51.9052 41.3055 50.7366C41.3043 50.7342 41.3019 50.7318 41.2995 50.7306C42.3638 49.3291 42.8713 47.5977 42.6986 45.9347C42.605 45.0432 42.3026 44.4337 41.7747 44.0713C41.2767 43.7305 40.6864 43.6777 40.1129 43.9225C39.267 44.2837 38.5326 45.2904 38.3659 46.3151C38.1199 47.8221 38.5482 49.3987 39.5249 50.7198C38.7642 51.4025 37.8619 51.8116 36.9236 51.8908C35.8677 51.9808 34.7687 51.5669 33.8964 50.7929C34.5935 49.6531 35.017 48.4508 35.2726 47.4513C35.5762 46.2683 35.4226 45.3912 34.8191 44.844C34.3847 44.4517 33.8196 44.3233 33.2304 44.4793C32.3845 44.7048 31.5902 45.4979 31.2987 46.405C30.8187 47.8869 31.1535 49.5211 32.2118 50.9069C31.8182 51.4025 31.3551 51.8608 30.8067 52.246C30.7323 52.2988 30.6543 52.3492 30.5787 52.3972C29.9932 50.8073 29.2289 49.2847 28.245 47.8509C27.0847 46.1639 25.9737 45.9515 25.2441 46.0775C24.7798 46.1531 24.3334 46.3894 23.9135 46.7758C23.0724 47.5545 22.632 48.7304 22.71 50.0022C22.7964 51.4385 23.5007 52.7679 24.5926 53.5586C26.0265 54.5953 27.981 54.8101 29.7892 54.2162C31.2723 59.2304 31.1043 64.8974 30.6147 70.4299C30.5823 70.7935 30.8511 71.1138 31.2147 71.145C31.2339 71.1462 31.2531 71.1474 31.2735 71.1474C31.6106 71.1474 31.8986 70.8883 31.9298 70.5451C32.4373 64.8122 32.6029 58.928 31.0083 53.6774C31.1991 53.5694 31.385 53.4518 31.5662 53.3247C32.1722 52.8999 32.6893 52.4032 33.1296 51.8704C34.2551 52.8219 35.6746 53.3163 37.0352 53.2047C38.2651 53.1003 39.4325 52.5747 40.4068 51.7L40.4092 51.7024C41.9978 53.1747 44.0652 53.7794 45.9418 53.3247ZM25.3653 52.4896C24.601 51.9364 24.0875 50.9537 24.0263 49.923C23.9723 49.0363 24.2507 48.2636 24.8098 47.7453C25.0318 47.5401 25.2561 47.4141 25.4577 47.3793C25.5009 47.3733 25.5417 47.3697 25.5825 47.3697C26.2124 47.3697 26.8304 48.1268 27.1555 48.5996C28.095 49.9662 28.8209 51.4277 29.3741 52.9587C27.9642 53.4149 26.4404 53.2659 25.3653 52.4896ZM32.9941 49.7194C32.4157 48.7787 32.2538 47.7432 32.5561 46.8109C32.7085 46.3369 33.1644 45.863 33.5724 45.755C33.6264 45.7406 33.6732 45.7334 33.7128 45.7334C33.8184 45.7334 33.8832 45.7754 33.9324 45.821C34.1387 46.0082 34.1603 46.4713 33.9948 47.1229C33.7944 47.9049 33.4812 48.8264 32.9941 49.7194ZM39.6689 46.5274C39.7625 45.9563 40.204 45.3192 40.6324 45.1356C40.7092 45.102 40.774 45.0888 40.828 45.0888C40.912 45.0888 40.9756 45.1212 41.0296 45.1584C41.2131 45.2844 41.3355 45.5999 41.3871 46.0715C41.5131 47.2905 41.1555 48.608 40.42 49.6927C39.7709 48.7124 39.4961 47.5908 39.6689 46.5274Z" fill="#EEE2DE"/>
<path d="M41.0764 53.6817C38.5963 59.0859 37.9339 64.8537 39.045 70.6922C39.2034 71.5261 40.4765 71.1733 40.3181 70.3418C39.279 64.8837 39.8957 59.4051 42.2163 54.3488C42.5678 53.5806 41.4303 52.9087 41.0764 53.6817Z" fill="#EEE2DE"/>
<path d="M45.6886 18.5184C44.9519 18.0937 44.286 19.2335 45.0227 19.6583C51.4852 23.3791 55.1112 30.3959 54.4669 37.8158C54.3925 38.6617 55.7135 38.6569 55.7867 37.8158C56.4694 29.9483 52.5243 22.454 45.6886 18.5184Z" fill="#EEE2DE"/>
<path d="M54.9552 44.7398C55.6391 43.5016 55.8443 42.1577 55.6067 40.7683C55.4639 39.9332 54.1921 40.2871 54.3336 41.1198C54.51 42.1481 54.3168 43.1644 53.8153 44.0739C53.4038 44.8193 54.5436 45.485 54.9552 44.7398Z" fill="#EEE2DE"/>
<path d="M15.3909 27.0418C13.3955 30.1003 12.33 33.5223 12.2064 37.1711C12.1776 38.0206 13.4975 38.0194 13.5263 37.1711C13.6427 33.7358 14.653 30.5874 16.5308 27.7089C16.9951 26.995 15.8528 26.333 15.3909 27.0418Z" fill="#EEE2DE"/>
<path d="M12.3084 40.4589C12.0084 42.0919 12.2916 43.7009 13.1963 45.1012C13.6558 45.8115 14.7993 45.1516 14.3362 44.4352C13.6294 43.3422 13.3451 42.0967 13.5814 40.8093C13.7338 39.9789 12.462 39.6223 12.3084 40.4589Z" fill="#EEE2DE"/>
<path d="M32.7265 4.8254V0.637578C32.7265 -0.211926 31.4067 -0.213126 31.4067 0.637578V4.8251C31.4067 5.67461 32.7265 5.67611 32.7265 4.8254Z" fill="#EEE2DE"/>
<path d="M67.0331 16.5872C65.4541 17.637 63.8738 18.6869 62.2948 19.7368C61.5905 20.2048 62.2504 21.3494 62.9607 20.8767C64.5398 19.8268 66.12 18.7769 67.699 17.727C68.4033 17.2591 67.7434 16.1144 67.0331 16.5872Z" fill="#EEE2DE"/>
<path d="M1.1281 24.4576C0.525771 23.8564 -0.407723 24.7887 0.194609 25.3911C1.31168 26.5069 2.42876 27.624 3.54463 28.7411C4.14696 29.3422 5.08045 28.4099 4.47812 27.8076C3.36105 26.6917 2.24518 25.5746 1.1281 24.4576Z" fill="#EEE2DE"/>
<path d="M15.2085 13.5041C15.6836 14.2024 16.8283 13.5425 16.3483 12.8382C15.4988 11.5903 14.6505 10.3412 13.7998 9.09338C13.3247 8.39505 12.1812 9.05378 12.6612 9.7593C13.5107 11.0069 14.3602 12.2559 15.2085 13.5041Z" fill="#EEE2DE"/>
<path d="M50.5278 11.5634C51.3329 10.5604 52.1368 9.55607 52.9419 8.55299C53.4686 7.89666 52.5399 6.95717 52.0084 7.61949C51.2033 8.62378 50.3994 9.62686 49.5943 10.63C49.0675 11.2863 49.9962 12.2261 50.5278 11.5634Z" fill="#EEE2DE"/>
</svg>
