<svg width="177" height="87" viewBox="0 0 177 87" fill="none" xmlns="http://www.w3.org/2000/svg">
<g filter="url(#filter0_d_226_40)">
<path d="M15.9227 43.3805H27.264L57.1094 84.5672H44.5743L37.4114 74.2705L30.2485 63.9738L15.9227 43.3805ZM1 1H11.1474V63.6754V74.1213V84.5672H1V1ZM6.61094 9.95363V1H23.6825C29.0945 1 33.9095 2.03464 38.1277 4.10393C42.4254 6.09362 45.8079 8.95878 48.2751 12.6994C50.8219 16.44 52.0954 20.8969 52.0954 26.0702C52.0954 31.1638 50.8219 35.6207 48.2751 39.4409C45.8079 43.1815 42.4254 46.0865 38.1277 48.1558C33.9095 50.1455 29.0945 51.1403 23.6825 51.1403H6.61094V42.1867H23.6825C27.264 42.1867 30.4077 41.55 33.1137 40.2766C35.8992 39.0032 38.0481 37.1726 39.5603 34.785C41.152 32.3974 41.9479 29.4924 41.9479 26.0702C41.9479 22.6479 41.152 19.7429 39.5603 17.3553C38.0481 14.9677 35.8992 13.1371 33.1137 11.8637C30.4077 10.5903 27.264 9.95363 23.6825 9.95363H6.61094Z" fill="url(#paint0_linear_226_40)"/>
<path d="M37.4114 74.2705L30.2485 63.9738L11.1474 63.6754V74.1213L37.4114 74.2705Z" fill="url(#paint1_linear_226_40)"/>
<path d="M60.224 43.0223C60.224 43.5396 60.3434 43.9873 60.5821 44.3653C60.8408 44.7434 61.189 45.0319 61.6267 45.2309C62.0844 45.4099 62.6017 45.4995 63.1787 45.4995C63.9149 45.4995 64.5715 45.3502 65.1485 45.0518C65.7454 44.7533 66.213 44.3355 66.5512 43.7983C66.9094 43.2412 67.0884 42.6045 67.0884 41.8882L67.566 43.6789C67.566 44.5544 67.2974 45.2806 66.7601 45.8576C66.2428 46.4346 65.5962 46.8624 64.8202 47.141C64.0641 47.4195 63.308 47.5588 62.5519 47.5588C61.7163 47.5588 60.9303 47.3897 60.1942 47.0514C59.4779 46.6933 58.9009 46.1859 58.4631 45.5293C58.0254 44.8727 57.8065 44.0768 57.8065 43.1417C57.8065 41.8086 58.2741 40.7441 59.2093 39.9482C60.1643 39.1324 61.4875 38.7246 63.1787 38.7246C64.1735 38.7246 64.9993 38.8439 65.6559 39.0827C66.3324 39.3016 66.8696 39.5602 67.2675 39.8587C67.6655 40.1372 67.9341 40.3661 68.0733 40.5451V41.9479C67.377 41.4703 66.6607 41.1321 65.9245 40.9331C65.1883 40.7143 64.4024 40.6048 63.5667 40.6048C62.7907 40.6048 62.154 40.7043 61.6566 40.9033C61.1791 41.1022 60.8209 41.3808 60.5821 41.7389C60.3434 42.0971 60.224 42.5249 60.224 43.0223ZM59.8659 36.6951L58.7019 34.9342C59.2192 34.5561 59.9255 34.1781 60.8209 33.8001C61.7362 33.422 62.8305 33.233 64.1039 33.233C65.1783 33.233 66.1135 33.4021 66.9094 33.7404C67.7252 34.0587 68.3519 34.5263 68.7896 35.1431C69.2473 35.7599 69.4761 36.516 69.4761 37.4114V47.2603H67.0884V37.7397C67.0884 37.2621 67.0089 36.8741 66.8497 36.5757C66.6905 36.2573 66.4617 36.0086 66.1632 35.8296C65.8847 35.6505 65.5564 35.5212 65.1783 35.4416C64.8003 35.362 64.4024 35.3222 63.9845 35.3222C63.308 35.3222 62.6912 35.4018 62.1341 35.5609C61.5969 35.7201 61.1393 35.9091 60.7612 36.128C60.3832 36.3469 60.0847 36.5359 59.8659 36.6951Z" fill="url(#paint2_linear_226_40)"/>
<path d="M73.1305 27.8608C73.1305 27.4032 73.2897 27.0252 73.608 26.7267C73.9264 26.4083 74.3044 26.2492 74.7422 26.2492C75.1998 26.2492 75.5778 26.4083 75.8763 26.7267C76.1946 27.0252 76.3538 27.4032 76.3538 27.8608C76.3538 28.2986 76.1946 28.6766 75.8763 28.995C75.5778 29.3133 75.1998 29.4725 74.7422 29.4725C74.3044 29.4725 73.9264 29.3133 73.608 28.995C73.2897 28.6766 73.1305 28.2986 73.1305 27.8608ZM70.7727 50.6627C70.9319 50.9015 71.1309 51.0905 71.3696 51.2298C71.6283 51.3691 71.9168 51.4387 72.2352 51.4387C72.5734 51.4387 72.842 51.3492 73.041 51.1701C73.2598 50.991 73.419 50.7025 73.5185 50.3046C73.618 49.9066 73.6677 49.3893 73.6677 48.7526V33.5315H76.0554V49.0511C76.0554 50.0459 75.8962 50.9015 75.5778 51.6178C75.2794 52.3341 74.8317 52.8812 74.2348 53.2593C73.6379 53.6373 72.9216 53.8263 72.0859 53.8263C71.688 53.8263 71.3298 53.7766 71.0115 53.6771C70.6931 53.5975 70.4046 53.4682 70.146 53.2891C69.8873 53.11 69.6585 52.8912 69.4595 52.6325L70.7727 50.6627Z" fill="url(#paint3_linear_226_40)"/>
<path d="M91.2765 23.9809H93.6642V47.2603H91.2765V23.9809ZM79.786 40.3959C79.786 38.9036 80.0944 37.6302 80.7113 36.5757C81.3281 35.5013 82.1538 34.6755 83.1884 34.0985C84.2231 33.5215 85.3572 33.233 86.5908 33.233C87.7448 33.233 88.7496 33.5215 89.6052 34.0985C90.4608 34.6755 91.1273 35.5013 91.6048 36.5757C92.1022 37.6302 92.351 38.9036 92.351 40.3959C92.351 41.8683 92.1022 43.1417 91.6048 44.2161C91.1273 45.2905 90.4608 46.1163 89.6052 46.6933C88.7496 47.2703 87.7448 47.5588 86.5908 47.5588C85.3572 47.5588 84.2231 47.2703 83.1884 46.6933C82.1538 46.1163 81.3281 45.2905 80.7113 44.2161C80.0944 43.1417 79.786 41.8683 79.786 40.3959ZM82.2035 40.3959C82.2035 41.4504 82.4124 42.3458 82.8303 43.082C83.268 43.8182 83.845 44.3753 84.5613 44.7533C85.2776 45.1314 86.0536 45.3204 86.8893 45.3204C87.5856 45.3204 88.2721 45.1314 88.9486 44.7533C89.6251 44.3753 90.1822 43.8182 90.6199 43.082C91.0577 42.3458 91.2765 41.4504 91.2765 40.3959C91.2765 39.3414 91.0577 38.446 90.6199 37.7098C90.1822 36.9736 89.6251 36.4165 88.9486 36.0385C88.2721 35.6604 87.5856 35.4714 86.8893 35.4714C86.0536 35.4714 85.2776 35.6604 84.5613 36.0385C83.845 36.4165 83.268 36.9736 82.8303 37.7098C82.4124 38.446 82.2035 39.3414 82.2035 40.3959Z" fill="url(#paint4_linear_226_40)"/>
<path d="M100.389 23.9809V47.2603H98.0011V23.9809H100.389ZM106.805 38.9036C106.805 37.7695 106.557 36.9139 106.059 36.3369C105.582 35.7599 104.856 35.4714 103.881 35.4714C103.184 35.4714 102.567 35.6206 102.03 35.9191C101.513 36.2175 101.105 36.6254 100.807 37.1427C100.528 37.6601 100.389 38.247 100.389 38.9036H99.6127C99.6127 37.8093 99.8216 36.8443 100.239 36.0086C100.657 35.1531 101.224 34.4766 101.941 33.9791C102.677 33.4817 103.522 33.233 104.478 33.233C105.433 33.233 106.258 33.432 106.955 33.8299C107.671 34.2278 108.218 34.8248 108.596 35.6206C108.994 36.4165 109.193 37.4114 109.193 38.6052V47.2603H106.805V38.9036Z" fill="url(#paint5_linear_226_40)"/>
<path d="M114.756 43.0223C114.756 43.5396 114.875 43.9873 115.114 44.3653C115.373 44.7434 115.721 45.0319 116.159 45.2309C116.616 45.4099 117.134 45.4995 117.711 45.4995C118.447 45.4995 119.103 45.3502 119.681 45.0518C120.277 44.7533 120.745 44.3355 121.083 43.7983C121.441 43.2412 121.62 42.6045 121.62 41.8882L122.098 43.6789C122.098 44.5544 121.829 45.2806 121.292 45.8576C120.775 46.4346 120.128 46.8624 119.352 47.141C118.596 47.4195 117.84 47.5588 117.084 47.5588C116.248 47.5588 115.462 47.3897 114.726 47.0514C114.01 46.6933 113.433 46.1859 112.995 45.5293C112.557 44.8727 112.339 44.0768 112.339 43.1417C112.339 41.8086 112.806 40.7441 113.741 39.9482C114.696 39.1324 116.019 38.7246 117.711 38.7246C118.706 38.7246 119.531 38.8439 120.188 39.0827C120.864 39.3016 121.402 39.5602 121.8 39.8587C122.197 40.1372 122.466 40.3661 122.605 40.5451V41.9479C121.909 41.4703 121.193 41.1321 120.456 40.9331C119.72 40.7143 118.934 40.6048 118.099 40.6048C117.323 40.6048 116.686 40.7043 116.189 40.9033C115.711 41.1022 115.353 41.3808 115.114 41.7389C114.875 42.0971 114.756 42.5249 114.756 43.0223ZM114.398 36.6951L113.234 34.9342C113.751 34.5561 114.458 34.1781 115.353 33.8001C116.268 33.422 117.363 33.233 118.636 33.233C119.71 33.233 120.646 33.4021 121.441 33.7404C122.257 34.0587 122.884 34.5263 123.322 35.1431C123.779 35.7599 124.008 36.516 124.008 37.4114V47.2603H121.62V37.7397C121.62 37.2621 121.541 36.8741 121.382 36.5757C121.223 36.2573 120.994 36.0086 120.695 35.8296C120.417 35.6505 120.088 35.5212 119.71 35.4416C119.332 35.362 118.934 35.3222 118.517 35.3222C117.84 35.3222 117.223 35.4018 116.666 35.5609C116.129 35.7201 115.671 35.9091 115.293 36.128C114.915 36.3469 114.617 36.5359 114.398 36.6951Z" fill="url(#paint6_linear_226_40)"/>
<path d="M136.855 38.9036C136.855 37.7695 136.606 36.9139 136.109 36.3369C135.611 35.7599 134.885 35.4714 133.93 35.4714C133.234 35.4714 132.617 35.6206 132.08 35.9191C131.562 36.1976 131.154 36.5956 130.856 37.1129C130.577 37.6302 130.438 38.2271 130.438 38.9036V47.2603H128.051V33.5315H130.438V35.6803C130.896 34.8447 131.463 34.2278 132.139 33.8299C132.836 33.432 133.632 33.233 134.527 33.233C135.979 33.233 137.124 33.7205 137.959 34.6954C138.815 35.6505 139.243 36.9537 139.243 38.6052V47.2603H136.855V38.9036Z" fill="url(#paint7_linear_226_40)"/>
<path d="M143.731 27.8608C143.731 27.4032 143.89 27.0152 144.209 26.6969C144.547 26.3785 144.935 26.2193 145.372 26.2193C145.83 26.2193 146.218 26.3785 146.536 26.6969C146.855 27.0152 147.014 27.4032 147.014 27.8608C147.014 28.2986 146.855 28.6866 146.536 29.0248C146.218 29.3431 145.83 29.5023 145.372 29.5023C144.935 29.5023 144.547 29.3431 144.209 29.0248C143.89 28.6866 143.731 28.2986 143.731 27.8608ZM144.179 33.5315H146.566V47.2603H144.179V33.5315Z" fill="url(#paint8_linear_226_40)"/>
<path d="M69.5337 61.2877H71.9213V84.5671H69.5337V61.2877ZM58.0432 77.7027C58.0432 76.2104 58.3516 74.937 58.9684 73.8824C59.5852 72.808 60.411 71.9823 61.4456 71.4053C62.4802 70.8283 63.6144 70.5398 64.848 70.5398C66.002 70.5398 67.0068 70.8283 67.8624 71.4053C68.7179 71.9823 69.3845 72.808 69.862 73.8824C70.3594 74.937 70.6081 76.2104 70.6081 77.7027C70.6081 79.175 70.3594 80.4484 69.862 81.5229C69.3845 82.5973 68.7179 83.423 67.8624 84.0001C67.0068 84.5771 66.002 84.8656 64.848 84.8656C63.6144 84.8656 62.4802 84.5771 61.4456 84.0001C60.411 83.423 59.5852 82.5973 58.9684 81.5229C58.3516 80.4484 58.0432 79.175 58.0432 77.7027ZM60.4607 77.7027C60.4607 78.7572 60.6696 79.6526 61.0875 80.3888C61.5252 81.1249 62.1022 81.6821 62.8185 82.0601C63.5348 82.4381 64.3108 82.6272 65.1464 82.6272C65.8428 82.6272 66.5293 82.4381 67.2058 82.0601C67.8823 81.6821 68.4394 81.1249 68.8771 80.3888C69.3148 79.6526 69.5337 78.7572 69.5337 77.7027C69.5337 76.6481 69.3148 75.7528 68.8771 75.0166C68.4394 74.2804 67.8823 73.7233 67.2058 73.3452C66.5293 72.9672 65.8428 72.7782 65.1464 72.7782C64.3108 72.7782 63.5348 72.9672 62.8185 73.3452C62.1022 73.7233 61.5252 74.2804 61.0875 75.0166C60.6696 75.7528 60.4607 76.6481 60.4607 77.7027Z" fill="url(#paint9_linear_226_40)"/>
<path d="M74.0198 70.8382H76.7059L80.5858 80.538L84.4657 70.8382H87.1518L80.5858 85.6117L74.0198 70.8382Z" fill="url(#paint10_linear_226_40)"/>
<path d="M94.2784 84.8656C93.0049 84.8656 91.8708 84.5671 90.876 83.9702C89.901 83.3534 89.135 82.5078 88.5779 81.4333C88.0407 80.3589 87.772 79.1153 87.772 77.7027C87.772 76.2701 88.0506 75.0166 88.6077 73.9421C89.1847 72.8677 89.9806 72.032 90.9954 71.4351C92.03 70.8382 93.2238 70.5398 94.5768 70.5398C95.9298 70.5398 97.0838 70.8283 98.0389 71.4053C99.0138 71.9624 99.76 72.7682 100.277 73.8228C100.795 74.8773 101.053 76.1308 101.053 77.5833C101.053 77.7226 101.043 77.8718 101.023 78.031C101.023 78.1702 101.023 78.2598 101.023 78.2996H89.2942V76.2701H99.1432L98.1881 77.643C98.2478 77.5435 98.3075 77.3943 98.3672 77.1953C98.4269 76.9764 98.4567 76.7973 98.4567 76.6581C98.4567 75.8423 98.2876 75.136 97.9493 74.539C97.631 73.9421 97.1833 73.4746 96.6063 73.1363C96.0293 72.7981 95.3528 72.6289 94.5768 72.6289C93.6616 72.6289 92.8756 72.8279 92.219 73.2259C91.5823 73.6039 91.0849 74.161 90.7267 74.8972C90.3885 75.6135 90.2094 76.4989 90.1895 77.5534C90.1895 78.6279 90.3587 79.5431 90.6969 80.2992C91.0351 81.0553 91.5326 81.6323 92.1892 82.0303C92.8458 82.4282 93.6417 82.6272 94.5768 82.6272C95.512 82.6272 96.3377 82.4282 97.054 82.0303C97.7703 81.6124 98.3771 80.9857 98.8745 80.15L100.814 81.3736C100.098 82.5277 99.1929 83.4031 98.0986 84.0001C97.0241 84.5771 95.7507 84.8656 94.2784 84.8656Z" fill="url(#paint11_linear_226_40)"/>
<path d="M106.713 70.8382V84.5671H104.326V70.8382H106.713ZM110.862 73.4646C110.544 73.2259 110.255 73.0567 109.996 72.9572C109.738 72.8379 109.409 72.7782 109.011 72.7782C108.415 72.7782 107.947 72.9274 107.609 73.2259C107.271 73.5243 107.032 73.9322 106.892 74.4495C106.773 74.9668 106.713 75.5538 106.713 76.2104H105.639C105.639 75.1161 105.828 74.1511 106.206 73.3154C106.604 72.4598 107.111 71.7833 107.728 71.2859C108.345 70.7885 108.972 70.5398 109.608 70.5398C110.106 70.5398 110.563 70.6094 110.981 70.7487C111.419 70.8681 111.817 71.1168 112.175 71.4948L110.862 73.4646Z" fill="url(#paint12_linear_226_40)"/>
<path d="M112.467 70.8382H119.331V73.0766H112.467V70.8382ZM114.705 66.063H117.093V84.5671H114.705V66.063Z" fill="url(#paint13_linear_226_40)"/>
<path d="M121.726 65.1676C121.726 64.71 121.885 64.322 122.203 64.0036C122.542 63.6853 122.93 63.5261 123.367 63.5261C123.825 63.5261 124.213 63.6853 124.531 64.0036C124.85 64.322 125.009 64.71 125.009 65.1676C125.009 65.6053 124.85 65.9933 124.531 66.3316C124.213 66.6499 123.825 66.8091 123.367 66.8091C122.93 66.8091 122.542 66.6499 122.203 66.3316C121.885 65.9933 121.726 65.6053 121.726 65.1676ZM122.174 70.8382H124.561V84.5671H122.174V70.8382Z" fill="url(#paint14_linear_226_40)"/>
<path d="M130.046 80.3589C130.324 80.7767 130.643 81.1647 131.001 81.5229C131.359 81.881 131.767 82.1695 132.224 82.3884C132.702 82.5874 133.219 82.6869 133.776 82.6869C134.453 82.6869 134.98 82.5376 135.358 82.2392C135.756 81.9208 135.955 81.493 135.955 80.9558C135.955 80.4783 135.796 80.0803 135.478 79.762C135.179 79.4238 134.791 79.1452 134.314 78.9263C133.836 78.6876 133.329 78.4687 132.792 78.2697C132.195 78.031 131.588 77.7524 130.971 77.4341C130.374 77.0958 129.867 76.668 129.449 76.1507C129.051 75.6135 128.852 74.9469 128.852 74.1511C128.852 73.3353 129.061 72.6588 129.479 72.1216C129.916 71.5844 130.474 71.1864 131.15 70.9278C131.846 70.6691 132.563 70.5398 133.299 70.5398C134.035 70.5398 134.722 70.6591 135.358 70.8979C136.015 71.1367 136.592 71.455 137.089 71.853C137.587 72.2509 137.975 72.7085 138.253 73.2259L136.343 74.4495C135.965 73.9322 135.488 73.5044 134.911 73.1662C134.353 72.8279 133.717 72.6588 133 72.6588C132.503 72.6588 132.075 72.7682 131.717 72.9871C131.359 73.206 131.18 73.5442 131.18 74.0018C131.18 74.36 131.319 74.6783 131.598 74.9569C131.876 75.2354 132.234 75.4842 132.672 75.703C133.11 75.9219 133.568 76.1308 134.045 76.3298C134.841 76.6481 135.567 76.9963 136.224 77.3744C136.88 77.7325 137.398 78.1702 137.776 78.6876C138.174 79.2049 138.373 79.8714 138.373 80.6872C138.373 81.881 137.935 82.8759 137.059 83.6717C136.204 84.4676 135.07 84.8656 133.657 84.8656C132.742 84.8656 131.916 84.7064 131.18 84.388C130.444 84.0498 129.817 83.622 129.3 83.1047C128.802 82.5874 128.424 82.0601 128.165 81.5229L130.046 80.3589Z" fill="url(#paint15_linear_226_40)"/>
<path d="M146.828 84.8656C145.555 84.8656 144.421 84.5671 143.426 83.9702C142.451 83.3534 141.685 82.5078 141.128 81.4333C140.591 80.3589 140.322 79.1153 140.322 77.7027C140.322 76.2701 140.601 75.0166 141.158 73.9421C141.735 72.8677 142.531 72.032 143.545 71.4351C144.58 70.8382 145.774 70.5398 147.127 70.5398C148.48 70.5398 149.634 70.8283 150.589 71.4053C151.564 71.9624 152.31 72.7682 152.827 73.8228C153.345 74.8773 153.603 76.1308 153.603 77.5833C153.603 77.7226 153.593 77.8718 153.574 78.031C153.574 78.1702 153.574 78.2598 153.574 78.2996H141.844V76.2701H151.693L150.738 77.643C150.798 77.5435 150.858 77.3943 150.917 77.1953C150.977 76.9764 151.007 76.7973 151.007 76.6581C151.007 75.8423 150.838 75.136 150.499 74.539C150.181 73.9421 149.733 73.4746 149.156 73.1363C148.579 72.7981 147.903 72.6289 147.127 72.6289C146.212 72.6289 145.426 72.8279 144.769 73.2259C144.132 73.6039 143.635 74.161 143.277 74.8972C142.939 75.6135 142.76 76.4989 142.74 77.5534C142.74 78.6279 142.909 79.5431 143.247 80.2992C143.585 81.0553 144.083 81.6323 144.739 82.0303C145.396 82.4282 146.192 82.6272 147.127 82.6272C148.062 82.6272 148.888 82.4282 149.604 82.0303C150.32 81.6124 150.927 80.9857 151.425 80.15L153.365 81.3736C152.648 82.5277 151.743 83.4031 150.649 84.0001C149.574 84.5771 148.301 84.8656 146.828 84.8656Z" fill="url(#paint16_linear_226_40)"/>
<path d="M159.263 70.8382V84.5671H156.876V70.8382H159.263ZM163.412 73.4646C163.094 73.2259 162.805 73.0567 162.546 72.9572C162.288 72.8379 161.96 72.7782 161.562 72.7782C160.965 72.7782 160.497 72.9274 160.159 73.2259C159.821 73.5243 159.582 73.9322 159.443 74.4495C159.323 74.9668 159.263 75.5538 159.263 76.2104H158.189C158.189 75.1161 158.378 74.1511 158.756 73.3154C159.154 72.4598 159.661 71.7833 160.278 71.2859C160.895 70.7885 161.522 70.5398 162.158 70.5398C162.656 70.5398 163.114 70.6094 163.531 70.7487C163.969 70.8681 164.367 71.1168 164.725 71.4948L163.412 73.4646Z" fill="url(#paint17_linear_226_40)"/>
<path d="M167.673 80.3589C167.952 80.7767 168.27 81.1647 168.628 81.5229C168.986 81.881 169.394 82.1695 169.852 82.3884C170.329 82.5874 170.847 82.6869 171.404 82.6869C172.08 82.6869 172.608 82.5376 172.986 82.2392C173.384 81.9208 173.583 81.493 173.583 80.9558C173.583 80.4783 173.423 80.0803 173.105 79.762C172.807 79.4238 172.419 79.1452 171.941 78.9263C171.463 78.6876 170.956 78.4687 170.419 78.2697C169.822 78.031 169.215 77.7524 168.598 77.4341C168.001 77.0958 167.494 76.668 167.076 76.1507C166.678 75.6135 166.479 74.9469 166.479 74.1511C166.479 73.3353 166.688 72.6588 167.106 72.1216C167.544 71.5844 168.101 71.1864 168.777 70.9278C169.474 70.6691 170.19 70.5398 170.926 70.5398C171.662 70.5398 172.349 70.6591 172.986 70.8979C173.642 71.1367 174.219 71.455 174.717 71.853C175.214 72.2509 175.602 72.7085 175.881 73.2259L173.971 74.4495C173.592 73.9322 173.115 73.5044 172.538 73.1662C171.981 72.8279 171.344 72.6588 170.628 72.6588C170.13 72.6588 169.703 72.7682 169.344 72.9871C168.986 73.206 168.807 73.5442 168.807 74.0018C168.807 74.36 168.947 74.6783 169.225 74.9569C169.504 75.2354 169.862 75.4842 170.3 75.703C170.737 75.9219 171.195 76.1308 171.672 76.3298C172.468 76.6481 173.195 76.9963 173.851 77.3744C174.508 77.7325 175.025 78.1702 175.403 78.6876C175.801 79.2049 176 79.8714 176 80.6872C176 81.881 175.562 82.8759 174.687 83.6717C173.831 84.4676 172.697 84.8656 171.284 84.8656C170.369 84.8656 169.543 84.7064 168.807 84.388C168.071 84.0498 167.444 83.622 166.927 83.1047C166.43 82.5874 166.052 82.0601 165.793 81.5229L167.673 80.3589Z" fill="url(#paint18_linear_226_40)"/>
</g>
<defs>
<filter id="filter0_d_226_40" x="0" y="0" width="177" height="86.6118" filterUnits="userSpaceOnUse" color-interpolation-filters="sRGB">
<feFlood flood-opacity="0" result="BackgroundImageFix"/>
<feColorMatrix in="SourceAlpha" type="matrix" values="0 0 0 0 0 0 0 0 0 0 0 0 0 0 0 0 0 0 127 0" result="hardAlpha"/>
<feOffset/>
<feGaussianBlur stdDeviation="0.5"/>
<feComposite in2="hardAlpha" operator="out"/>
<feColorMatrix type="matrix" values="0 0 0 0 0 0 0 0 0 0 0 0 0 0 0 0 0 0 0.5 0"/>
<feBlend mode="normal" in2="BackgroundImageFix" result="effect1_dropShadow_226_40"/>
<feBlend mode="normal" in="SourceGraphic" in2="effect1_dropShadow_226_40" result="shape"/>
</filter>
<linearGradient id="paint0_linear_226_40" x1="88.5" y1="1" x2="88.5" y2="85.6117" gradientUnits="userSpaceOnUse">
<stop stop-color="#B31312"/>
<stop offset="1" stop-color="#EA906C"/>
</linearGradient>
<linearGradient id="paint1_linear_226_40" x1="88.5" y1="1" x2="88.5" y2="85.6117" gradientUnits="userSpaceOnUse">
<stop stop-color="#B31312"/>
<stop offset="1" stop-color="#EA906C"/>
</linearGradient>
<linearGradient id="paint2_linear_226_40" x1="88.5" y1="1" x2="88.5" y2="85.6117" gradientUnits="userSpaceOnUse">
<stop stop-color="#B31312"/>
<stop offset="1" stop-color="#EA906C"/>
</linearGradient>
<linearGradient id="paint3_linear_226_40" x1="88.5" y1="1" x2="88.5" y2="85.6117" gradientUnits="userSpaceOnUse">
<stop stop-color="#B31312"/>
<stop offset="1" stop-color="#EA906C"/>
</linearGradient>
<linearGradient id="paint4_linear_226_40" x1="88.5" y1="1" x2="88.5" y2="85.6117" gradientUnits="userSpaceOnUse">
<stop stop-color="#B31312"/>
<stop offset="1" stop-color="#EA906C"/>
</linearGradient>
<linearGradient id="paint5_linear_226_40" x1="88.5" y1="1" x2="88.5" y2="85.6117" gradientUnits="userSpaceOnUse">
<stop stop-color="#B31312"/>
<stop offset="1" stop-color="#EA906C"/>
</linearGradient>
<linearGradient id="paint6_linear_226_40" x1="88.5" y1="1" x2="88.5" y2="85.6117" gradientUnits="userSpaceOnUse">
<stop stop-color="#B31312"/>
<stop offset="1" stop-color="#EA906C"/>
</linearGradient>
<linearGradient id="paint7_linear_226_40" x1="88.5" y1="1" x2="88.5" y2="85.6117" gradientUnits="userSpaceOnUse">
<stop stop-color="#B31312"/>
<stop offset="1" stop-color="#EA906C"/>
</linearGradient>
<linearGradient id="paint8_linear_226_40" x1="88.5" y1="1" x2="88.5" y2="85.6117" gradientUnits="userSpaceOnUse">
<stop stop-color="#B31312"/>
<stop offset="1" stop-color="#EA906C"/>
</linearGradient>
<linearGradient id="paint9_linear_226_40" x1="88.5" y1="1" x2="88.5" y2="85.6117" gradientUnits="userSpaceOnUse">
<stop stop-color="#B31312"/>
<stop offset="1" stop-color="#EA906C"/>
</linearGradient>
<linearGradient id="paint10_linear_226_40" x1="88.5" y1="1" x2="88.5" y2="85.6117" gradientUnits="userSpaceOnUse">
<stop stop-color="#B31312"/>
<stop offset="1" stop-color="#EA906C"/>
</linearGradient>
<linearGradient id="paint11_linear_226_40" x1="88.5" y1="1" x2="88.5" y2="85.6117" gradientUnits="userSpaceOnUse">
<stop stop-color="#B31312"/>
<stop offset="1" stop-color="#EA906C"/>
</linearGradient>
<linearGradient id="paint12_linear_226_40" x1="88.5" y1="1" x2="88.5" y2="85.6117" gradientUnits="userSpaceOnUse">
<stop stop-color="#B31312"/>
<stop offset="1" stop-color="#EA906C"/>
</linearGradient>
<linearGradient id="paint13_linear_226_40" x1="88.5" y1="1" x2="88.5" y2="85.6117" gradientUnits="userSpaceOnUse">
<stop stop-color="#B31312"/>
<stop offset="1" stop-color="#EA906C"/>
</linearGradient>
<linearGradient id="paint14_linear_226_40" x1="88.5" y1="1" x2="88.5" y2="85.6117" gradientUnits="userSpaceOnUse">
<stop stop-color="#B31312"/>
<stop offset="1" stop-color="#EA906C"/>
</linearGradient>
<linearGradient id="paint15_linear_226_40" x1="88.5" y1="1" x2="88.5" y2="85.6117" gradientUnits="userSpaceOnUse">
<stop stop-color="#B31312"/>
<stop offset="1" stop-color="#EA906C"/>
</linearGradient>
<linearGradient id="paint16_linear_226_40" x1="88.5" y1="1" x2="88.5" y2="85.6117" gradientUnits="userSpaceOnUse">
<stop stop-color="#B31312"/>
<stop offset="1" stop-color="#EA906C"/>
</linearGradient>
<linearGradient id="paint17_linear_226_40" x1="88.5" y1="1" x2="88.5" y2="85.6117" gradientUnits="userSpaceOnUse">
<stop stop-color="#B31312"/>
<stop offset="1" stop-color="#EA906C"/>
</linearGradient>
<linearGradient id="paint18_linear_226_40" x1="88.5" y1="1" x2="88.5" y2="85.6117" gradientUnits="userSpaceOnUse">
<stop stop-color="#B31312"/>
<stop offset="1" stop-color="#EA906C"/>
</linearGradient>
</defs>
</svg>
