<svg width="128" height="128" viewBox="0 0 128 128" fill="none" xmlns="http://www.w3.org/2000/svg">
<path fill-rule="evenodd" clip-rule="evenodd" d="M64 120C94.9279 120 120 94.9279 120 64C120 33.0721 94.9279 8 64 8C33.0721 8 8 33.0721 8 64C8 94.9279 33.0721 120 64 120ZM64 128C99.3462 128 128 99.3462 128 64C128 28.6538 99.3462 0 64 0C28.6538 0 0 28.6538 0 64C0 99.3462 28.6538 128 64 128Z" fill="url(#paint0_linear_277_3)"/>
<path d="M47.7462 64.7392H61.9933L99.4857 116.479H83.7389L74.7407 103.544L65.7426 90.609L47.7462 64.7392ZM29 11.5H41.7474V90.2341V103.356V116.479H29V11.5ZM36.0486 22.7477V11.5H57.4942C64.2929 11.5 70.3416 12.7997 75.6406 15.3992C81.0395 17.8987 85.2886 21.498 88.388 26.197C91.5873 30.8961 93.187 36.4949 93.187 42.9936C93.187 49.3923 91.5873 54.9912 88.388 59.7902C85.2886 64.4893 81.0395 68.1385 75.6406 70.738C70.3416 73.2375 64.2929 74.4873 57.4942 74.4873H36.0486V63.2395H57.4942C61.9933 63.2395 65.9425 62.4397 69.3418 60.84C72.8411 59.2403 75.5406 56.9408 77.4402 53.9414C79.4398 50.942 80.4396 47.2928 80.4396 42.9936C80.4396 38.6945 79.4398 35.0452 77.4402 32.0458C75.5406 29.0464 72.8411 26.7469 69.3418 25.1472C65.9425 23.5476 61.9933 22.7477 57.4942 22.7477H36.0486Z" fill="url(#paint1_linear_277_3)"/>
<path d="M74.7407 103.544L65.7426 90.609L41.7474 90.2341V103.356L74.7407 103.544Z" fill="url(#paint2_linear_277_3)"/>
<defs>
<linearGradient id="paint0_linear_277_3" x1="64" y1="0" x2="64" y2="128" gradientUnits="userSpaceOnUse">
<stop stop-color="#B31312"/>
<stop offset="1" stop-color="#EA906C"/>
</linearGradient>
<linearGradient id="paint1_linear_277_3" x1="64" y1="0" x2="64" y2="128" gradientUnits="userSpaceOnUse">
<stop stop-color="#B31312"/>
<stop offset="1" stop-color="#EA906C"/>
</linearGradient>
<linearGradient id="paint2_linear_277_3" x1="64" y1="0" x2="64" y2="128" gradientUnits="userSpaceOnUse">
<stop stop-color="#B31312"/>
<stop offset="1" stop-color="#EA906C"/>
</linearGradient>
</defs>
</svg>
