<svg width="64" height="64" viewBox="0 0 64 64" fill="none" xmlns="http://www.w3.org/2000/svg">
<path fill-rule="evenodd" clip-rule="evenodd" d="M32 60C47.464 60 60 47.464 60 32C60 16.536 47.464 4 32 4C16.536 4 4 16.536 4 32C4 47.464 16.536 60 32 60ZM32 64C49.6731 64 64 49.6731 64 32C64 14.3269 49.6731 0 32 0C14.3269 0 0 14.3269 0 32C0 49.6731 14.3269 64 32 64Z" fill="url(#paint0_linear_273_2)"/>
<path d="M23.8731 32.3696H30.9967L49.7429 58.2394H41.8695L37.3704 51.7719L32.8713 45.3045L23.8731 32.3696ZM14.5 5.75H20.8737V45.117V51.6782V58.2394H14.5V5.75ZM18.0243 11.3739V5.75H28.7471C32.1464 5.75 35.1708 6.39987 37.8203 7.69961C40.5197 8.94935 42.6443 10.749 44.194 13.0985C45.7937 15.448 46.5935 18.2475 46.5935 21.4968C46.5935 24.6962 45.7937 27.4956 44.194 29.8951C42.6443 32.2446 40.5197 34.0693 37.8203 35.369C35.1708 36.6188 32.1464 37.2436 28.7471 37.2436H18.0243V31.6198H28.7471C30.9967 31.6198 32.9713 31.2198 34.6709 30.42C36.4206 29.6202 37.7703 28.4704 38.7201 26.9707C39.7199 25.471 40.2198 23.6464 40.2198 21.4968C40.2198 19.3472 39.7199 17.5226 38.7201 16.0229C37.7703 14.5232 36.4206 13.3735 34.6709 12.5736C32.9713 11.7738 30.9967 11.3739 28.7471 11.3739H18.0243Z" fill="url(#paint1_linear_273_2)"/>
<path d="M37.3704 51.7719L32.8713 45.3045L20.8737 45.117V51.6782L37.3704 51.7719Z" fill="url(#paint2_linear_273_2)"/>
<defs>
<linearGradient id="paint0_linear_273_2" x1="32" y1="0" x2="32" y2="64" gradientUnits="userSpaceOnUse">
<stop stop-color="#B31312"/>
<stop offset="1" stop-color="#EA906C"/>
</linearGradient>
<linearGradient id="paint1_linear_273_2" x1="32" y1="0" x2="32" y2="64" gradientUnits="userSpaceOnUse">
<stop stop-color="#B31312"/>
<stop offset="1" stop-color="#EA906C"/>
</linearGradient>
<linearGradient id="paint2_linear_273_2" x1="32" y1="0" x2="32" y2="64" gradientUnits="userSpaceOnUse">
<stop stop-color="#B31312"/>
<stop offset="1" stop-color="#EA906C"/>
</linearGradient>
</defs>
</svg>
