<svg width="175" height="86" viewBox="0 0 175 86" fill="none" xmlns="http://www.w3.org/2000/svg">
<path d="M156.572 42.064C156.572 48.2616 151.789 53.3963 145.325 53.3963C138.858 53.3963 134.167 48.2616 134.167 42.064C134.167 35.8643 138.86 30.7274 145.325 30.7274C151.789 30.7274 156.572 35.8665 156.572 42.064Z" fill="#FFD43D"/>
<path d="M104.07 41.7098C104.07 47.9969 99.1119 52.6899 92.8226 52.6899C86.625 52.6899 81.6674 47.9948 81.6674 41.7098C81.6674 35.4204 86.625 30.8171 92.8247 30.8171C99.1119 30.8171 104.07 35.4226 104.07 41.7098Z" fill="#FF0C81"/>
<path d="M42.8409 53.3963C49.3052 53.3963 54.0878 48.2616 54.0878 42.064C54.0878 35.8643 49.3052 30.7274 42.8409 30.7274C36.3744 30.7274 31.6835 35.8643 31.6835 42.0619C31.6835 48.2616 36.3765 53.3963 42.8409 53.3963Z" fill="#11EEFC"/>
<path d="M145.325 65.1768C131.865 65.1768 121.593 54.7259 121.593 41.9744C121.593 29.3104 131.954 18.8616 145.325 18.8616C158.874 18.8616 169.146 29.4 169.146 41.9744C169.146 54.7259 158.785 65.1747 145.325 65.1747V65.1768ZM145.325 53.3963C151.789 53.3963 156.572 48.2616 156.572 42.064C156.572 35.8665 151.789 30.7274 145.325 30.7274C138.86 30.7274 134.167 35.8643 134.167 42.064C134.167 48.2616 138.858 53.3963 145.325 53.3963ZM91.939 85.3658C81.6674 85.3658 73.786 80.85 69.8015 72.7018L80.2503 67.0357C82.1988 70.843 85.829 73.8543 91.7619 73.8543C99.2015 73.8543 104.247 68.6299 104.247 60.0399V59.2418C101.856 62.253 97.6073 64.5558 91.4076 64.5558C79.0979 64.5558 69.2701 54.9927 69.2701 41.9744C69.2701 29.3104 79.5418 18.9512 93.0018 18.9512C106.727 18.9512 116.823 28.779 116.823 41.9744V59.6857C116.823 75.2713 106.195 85.3658 91.939 85.3658ZM92.8226 52.6899C99.1098 52.6899 104.07 47.9948 104.07 41.7098C104.07 35.4226 99.1119 30.8171 92.8247 30.8171C86.625 30.8171 81.6674 35.4204 81.6674 41.7098C81.6674 47.9969 86.6229 52.6899 92.8226 52.6899ZM42.8409 65.1768C29.3808 65.1768 19.1091 54.7259 19.1091 41.9744C19.1091 29.3104 29.4683 18.8616 42.8409 18.8616C56.3884 18.8616 66.6622 29.4 66.6622 41.9744C66.6622 54.7259 56.3009 65.1747 42.8409 65.1747V65.1768ZM42.8409 53.3963C49.3052 53.3963 54.0878 48.2616 54.0878 42.064C54.0878 35.8643 49.3052 30.7274 42.8409 30.7274C36.3744 30.7274 31.6835 35.8643 31.6835 42.0619C31.6835 48.2616 36.3765 53.3963 42.8409 53.3963ZM0 0H12.5744V64.0244H0V0ZM175 13.872C175 15.287 174.438 16.644 173.437 17.6446C172.437 18.6452 171.08 19.2073 169.665 19.2073C168.25 19.2073 166.893 18.6452 165.892 17.6446C164.891 16.644 164.329 15.287 164.329 13.872C164.329 12.4569 164.891 11.0999 165.892 10.0993C166.893 9.0987 168.25 8.53658 169.665 8.53658C171.08 8.53658 172.437 9.0987 173.437 10.0993C174.438 11.0999 175 12.4569 175 13.872Z" fill="#171A26"/>
</svg>
