<svg width="103" height="81" viewBox="0 0 103 81" fill="none" xmlns="http://www.w3.org/2000/svg">
<path d="M91.5677 72.9558C93.0064 72.9558 93.7854 74.0246 93.7854 75.3468V77.8558H92.8214V75.5026C92.8214 74.6377 92.3948 73.879 91.4993 73.879C90.6343 73.879 90.1974 74.6071 90.1974 75.4837V77.8558H89.2349V75.4822C89.2349 74.6086 88.7981 73.879 87.9113 73.879C87.0172 73.879 86.6182 74.6362 86.6182 75.5026V77.8558H85.6571V75.357C85.6571 74.0246 86.4143 72.9544 87.8443 72.9544C88.7966 72.9544 89.4868 73.4407 89.73 74.1804C89.9921 73.4407 90.6634 72.9558 91.5677 72.9558ZM82.2701 77.0389C83.154 77.0389 83.6404 76.27 83.6404 75.3861V73.0912H84.6029V75.5026C84.6029 76.8831 83.767 77.9723 82.2701 77.9723C80.7921 77.9723 79.9548 76.8729 79.9548 75.4924V73.0912H80.9173V75.3963C80.9173 76.27 81.395 77.0389 82.2701 77.0389ZM77.2405 77.9621C76.3552 77.9621 75.6752 77.6126 75.3038 76.9035L76.0436 76.4957C76.2868 76.9704 76.6755 77.1466 77.2012 77.1466C77.7458 77.1466 78.1637 76.9224 78.1637 76.5045C78.1637 75.5026 75.432 76.2613 75.432 74.4426C75.432 73.6067 76.1703 72.9937 77.2114 72.9937C78.0953 72.9937 78.6982 73.4014 78.9996 73.9562L78.2613 74.3756C78.0574 73.9562 77.6686 73.8106 77.2303 73.8106C76.7833 73.8106 76.3945 74.0436 76.3945 74.4222C76.3945 75.3963 79.1263 74.6857 79.1263 76.4841C79.1263 77.3884 78.2526 77.9621 77.2405 77.9621ZM70.631 80.0429H69.667V75.4633C69.667 74.0436 70.7664 72.9733 72.2051 72.9733C72.5353 72.9683 72.8632 73.029 73.1697 73.1518C73.4762 73.2747 73.7551 73.4574 73.9904 73.6891C74.2256 73.9208 74.4124 74.197 74.5399 74.5016C74.6674 74.8062 74.7331 75.1331 74.733 75.4633C74.733 76.9035 73.6933 77.9723 72.243 77.9723C71.6023 77.9723 71.0198 77.6898 70.6296 77.2631V80.0444L70.631 80.0429ZM72.2051 77.068C73.0905 77.068 73.7705 76.3399 73.7705 75.4735C73.7705 74.5984 73.0905 73.8892 72.2051 73.8892C71.3111 73.8892 70.631 74.5984 70.631 75.4735C70.631 76.3385 71.3111 77.068 72.2051 77.068ZM67.4289 73.0912H68.39V77.8558H67.4289V73.0912ZM80.4135 68.7431C73.0584 68.7431 67.4479 63.086 67.4479 56.2012C67.4479 49.366 73.0584 43.7074 80.4135 43.7074C87.7671 43.7074 93.3792 49.366 93.3792 56.2012C93.3792 63.086 87.7686 68.7431 80.4135 68.7431ZM80.4135 60.775C83.1001 60.775 84.8927 58.7 84.8927 56.2493C84.8927 53.7505 83.1016 51.6755 80.4135 51.6755C77.7254 51.6755 75.9344 53.7505 75.9344 56.2478C75.9344 58.7 77.7254 60.775 80.4135 60.775ZM51.4228 79.5872C45.5763 79.5872 41.3316 76.9952 39.1634 72.3734L46.1894 68.6019C46.9437 70.2037 48.3591 71.855 51.2816 71.855C54.3453 71.855 56.3738 69.9212 56.6097 66.5269C55.4768 67.5171 53.6857 68.2713 50.9991 68.2713C44.4449 68.2713 39.1634 63.2272 39.1634 56.1546C39.1634 49.318 44.7755 43.7554 52.1305 43.7554C59.6734 43.7554 65.0962 48.9889 65.0962 56.2012V65.5367C65.0962 74.0232 59.2016 79.5872 51.4228 79.5872ZM51.9878 60.3032C54.5346 60.3032 56.467 58.5588 56.467 55.9653C56.467 53.42 54.5346 51.7221 51.9878 51.7221C49.489 51.7221 47.5101 53.42 47.5101 55.9653C47.5101 58.5588 49.4905 60.3032 51.9878 60.3032ZM24.7678 68.7431C17.4128 68.7431 11.8022 63.086 11.8022 56.2012C11.8022 49.366 17.4128 43.7074 24.7678 43.7074C32.1214 43.7074 37.7335 49.366 37.7335 56.2012C37.7335 63.086 32.1229 68.7431 24.7678 68.7431ZM24.7678 60.775C27.4544 60.775 29.247 58.7 29.247 56.2493C29.247 53.7505 27.4559 51.6755 24.7678 51.6755C22.0798 51.6755 20.2887 53.7505 20.2887 56.2478C20.2887 58.7 22.0798 60.775 24.7678 60.775ZM0 33.6177H8.4865V68.0354H0V33.6177ZM103 46.5993C103 47.3717 102.693 48.1125 102.147 48.6586C101.601 49.2048 100.86 49.5116 100.088 49.5116C99.3153 49.5116 98.5745 49.2048 98.0284 48.6586C97.4822 48.1125 97.1754 47.3717 97.1754 46.5993C97.1754 45.8269 97.4822 45.0862 98.0284 44.54C98.5745 43.9938 99.3153 43.687 100.088 43.687C100.86 43.687 101.601 43.9938 102.147 44.54C102.693 45.0862 103 45.8269 103 46.5993Z" fill="#113441"/>
<path fill-rule="evenodd" clip-rule="evenodd" d="M79.783 14.076C88.1506 22.4434 93.1365 33.6042 93.7854 45.4198C91.3131 42.5264 87.9547 40.5301 84.2316 39.7408C82.5349 31.8998 78.4802 24.7655 72.6117 19.2956C66.7433 13.8256 59.3419 10.2818 51.4011 9.13979C43.4604 7.99781 35.3603 9.31234 28.1883 12.9069C21.0162 16.5015 15.1154 22.2041 11.278 29.2492H1.58139C4.65892 22.0118 9.46575 15.6404 15.5801 10.6941C21.6944 5.74777 28.9292 2.37774 36.6498 0.879754C44.3703 -0.618236 52.3405 -0.198402 59.861 2.10241C67.3814 4.40323 74.2222 8.51469 79.783 14.076Z" fill="#FFD43E"/>
<path fill-rule="evenodd" clip-rule="evenodd" d="M73.6045 20.2545C78.9448 25.5945 82.6342 32.3596 84.2316 39.7408C83.0055 39.4787 81.727 39.3389 80.4135 39.3389C78.637 39.3389 76.9275 39.5923 75.3213 40.0655C73.5305 33.4417 69.5639 27.6126 64.0594 23.5159C58.5549 19.4192 51.8324 17.293 44.9733 17.4792C38.1141 17.6654 31.5169 20.1533 26.2428 24.5426C20.9687 28.932 17.3242 34.9677 15.8954 41.679C14.8034 42.3074 13.7838 43.054 12.855 43.9054V29.2492H11.278C14.202 23.8807 18.3363 19.268 23.355 15.7775C28.3737 12.2871 34.1373 10.0151 40.1878 9.14189C46.2383 8.26873 52.4091 8.81851 58.2099 10.7476C64.0108 12.6766 69.2819 15.9318 73.6045 20.2545Z" fill="#EE8E1D"/>
<path d="M67.4289 44.9801C66.7594 40.269 64.5697 35.9055 61.1929 32.5529C57.8161 29.2004 53.4368 27.0423 48.721 26.4068C44.0053 25.7713 39.211 26.6931 35.0671 29.0321C30.9233 31.3711 27.6566 34.9994 25.7638 39.3651C30.9478 39.6447 35.4764 42.0925 38.4441 45.7882C41.6068 41.8712 46.5447 39.387 52.1305 39.387C58.1153 39.387 63.2585 42.011 66.3528 46.2863C66.6892 45.8334 67.0489 45.398 67.4289 44.9801Z" fill="#971C1C"/>
<path fill-rule="evenodd" clip-rule="evenodd" d="M75.3199 40.0655C72.289 40.9508 69.5605 42.6507 67.4289 44.9801C66.7589 40.2695 64.5676 35.9066 61.1909 32.5546C57.8142 29.2026 53.4354 27.0448 48.72 26.4093C44.0047 25.7739 39.2109 26.6954 35.0673 29.034C30.9237 31.3725 27.657 35 25.7638 39.3651C25.4321 39.3475 25.1 39.3387 24.7678 39.3389C21.5104 39.3389 18.4816 40.1922 15.8954 41.679C17.3253 34.9686 20.9703 28.9341 26.2444 24.5458C31.5184 20.1574 38.1149 17.6702 44.9734 17.4839C51.8318 17.2977 58.5536 19.4234 64.058 23.5191C69.5624 27.6149 73.5294 33.4427 75.3213 40.0655H75.3199Z" fill="#D62727"/>
</svg>
