<svg width="175" height="38" viewBox="0 0 175 38" fill="none" xmlns="http://www.w3.org/2000/svg">
<path fill-rule="evenodd" clip-rule="evenodd" d="M18.6184 4.27933L21.0893 0L28.0944 4.04508L25.6245 8.32347C25.1906 9.07402 25.84 9.98667 26.6908 9.82269L31.4245 8.9091L32.9566 16.8521L28.2228 17.7648C20.5655 19.2415 14.7195 11.0333 18.6184 4.27933Z" fill="#3A724F"/>
<path fill-rule="evenodd" clip-rule="evenodd" d="M14.3381 33.2011L11.8672 37.4805L4.86122 33.4363L7.33211 29.157C7.76595 28.4064 7.1166 27.4938 6.26486 27.6578L1.53201 28.5704L0 20.6283L4.73378 19.7157C12.391 18.2389 18.2361 26.4471 14.3381 33.2011Z" fill="#DC8E43"/>
<path fill-rule="evenodd" clip-rule="evenodd" d="M14.5518 4.27933L12.0818 0L5.07579 4.04508L7.54669 8.32347C7.97959 9.07402 7.33118 9.98667 6.47943 9.82269L1.74565 8.9091L0.215513 16.8521L4.94836 17.7648C12.6066 19.2415 18.4526 11.0333 14.5527 4.27933H14.5518Z" fill="#14424C"/>
<path fill-rule="evenodd" clip-rule="evenodd" d="M18.4123 33.2011L20.8813 37.4805L27.8873 33.4363L25.4164 29.157C24.9835 28.4064 25.6319 27.4938 26.4837 27.6578L31.2165 28.5704L32.7485 20.6283L28.0148 19.7157C20.3575 18.2389 14.5124 26.4471 18.4104 33.2011H18.4123Z" fill="#C85D1B"/>
<path d="M152.84 28.2537V20.2891C152.84 19.1853 153.094 18.1949 153.601 17.3188C154.127 16.4249 154.872 15.724 155.836 15.2152C156.8 14.7073 157.948 14.4534 159.28 14.4534C159.901 14.4473 160.52 14.5268 161.12 14.6895C161.681 14.8301 162.189 15.0315 162.645 15.2939C163.118 15.5394 163.521 15.8374 163.854 16.1878H163.907C164.264 15.8324 164.671 15.5312 165.115 15.2939C165.604 15.0252 166.126 14.8219 166.667 14.6895C167.276 14.528 167.904 14.4486 168.534 14.4534C169.865 14.4534 171.013 14.7064 171.977 15.2152C172.94 15.724 173.685 16.4239 174.211 17.3188C174.738 18.1949 175 19.1844 175 20.2891V28.2537H170.899V20.4203C170.899 19.9827 170.785 19.5882 170.558 19.2378C170.349 18.8712 170.05 18.5637 169.69 18.3439C169.31 18.1128 168.872 17.9942 168.428 18.0019C167.955 18.0019 167.525 18.1162 167.14 18.3439C166.78 18.5634 166.481 18.871 166.273 19.2378C166.06 19.5952 165.951 20.0045 165.957 20.4203V28.2537H161.883V20.4203C161.883 19.9827 161.768 19.5882 161.541 19.2378C161.327 18.8659 161.019 18.5575 160.647 18.3439C160.267 18.1128 159.829 17.9942 159.385 18.0019C158.911 18.0019 158.482 18.1162 158.097 18.3439C157.737 18.5634 157.438 18.871 157.23 19.2378C157.017 19.5954 156.908 20.0046 156.914 20.4203V28.2537H152.84ZM143.928 28.5695C142.544 28.5695 141.343 28.3071 140.327 27.7805C139.328 27.237 138.557 26.5099 138.013 25.5991C137.47 24.6706 137.198 23.6445 137.198 22.5229V14.7682H141.273V22.418C141.273 22.8912 141.387 23.3297 141.614 23.7326C141.842 24.1177 142.149 24.4335 142.534 24.679C142.937 24.9067 143.394 25.021 143.902 25.021C144.393 25.021 144.83 24.9067 145.216 24.679C145.619 24.4335 145.935 24.1177 146.163 23.7326C146.39 23.3297 146.505 22.8912 146.505 22.418V14.7682H150.579V22.5229C150.579 23.6445 150.315 24.6706 149.79 25.5991C149.264 26.5099 148.502 27.238 147.503 27.7805C146.521 28.3062 145.33 28.5695 143.928 28.5695ZM124.073 28.2537V25.021H130.567C130.742 25.021 130.9 24.9854 131.04 24.9151C131.18 24.828 131.294 24.7137 131.381 24.5741C131.467 24.436 131.513 24.2766 131.513 24.114C131.513 23.9514 131.467 23.792 131.381 23.6539C131.299 23.5188 131.181 23.4094 131.04 23.3381C130.898 23.2502 130.734 23.2046 130.567 23.207H128.201C127.324 23.207 126.527 23.0664 125.809 22.7862C125.127 22.5038 124.542 22.0287 124.126 21.4191C123.723 20.7885 123.522 19.9733 123.522 18.9745C123.522 18.2033 123.705 17.5024 124.073 16.8718C124.457 16.2431 124.989 15.7191 125.624 15.3464C126.287 14.9618 127.04 14.7622 127.806 14.7682H134.299V18.0281H128.437C128.204 18.0234 127.979 18.1083 127.806 18.2652C127.73 18.3403 127.669 18.4303 127.628 18.5297C127.587 18.6292 127.567 18.7359 127.569 18.8433C127.569 19.0888 127.649 19.2987 127.806 19.4739C127.979 19.6308 128.204 19.7156 128.437 19.711H130.751C131.732 19.711 132.573 19.86 133.274 20.157C133.993 20.4381 134.545 20.8935 134.931 21.525C135.333 22.1556 135.535 22.9699 135.535 23.9688C135.535 24.7577 135.333 25.4764 134.931 26.1239C134.548 26.7693 134.004 27.304 133.353 27.6756C132.704 28.0616 131.969 28.2537 131.145 28.2537H124.073ZM115.196 14.4534C116.336 14.4534 117.343 14.6371 118.219 15.0053C119.08 15.3334 119.853 15.855 120.48 16.5298C121.119 17.191 121.612 17.9792 121.926 18.8433C122.258 19.7194 122.425 20.692 122.425 21.7612C122.425 23.0926 122.145 24.2761 121.584 25.3096C121.065 26.3001 120.283 27.128 119.324 27.7018C118.36 28.2799 117.238 28.5695 115.959 28.5695C115.415 28.5695 114.898 28.4992 114.407 28.3596C113.942 28.2229 113.5 28.0189 113.094 27.7543C112.711 27.4946 112.381 27.1645 112.121 26.7817H112.041V33.9592H107.967V21.7602C107.967 20.2704 108.265 18.982 108.861 17.896C109.439 16.827 110.316 15.9498 111.384 15.3717C112.471 14.7589 113.742 14.4525 115.196 14.4525V14.4534ZM115.196 17.9756C114.566 17.9756 114.014 18.133 113.54 18.4488C113.084 18.7468 112.734 19.1675 112.488 19.711C112.244 20.2357 112.121 20.8326 112.121 21.4979C112.121 22.1641 112.244 22.76 112.488 23.2857C112.734 23.8113 113.084 24.232 113.54 24.5478C114.014 24.8458 114.566 24.9948 115.196 24.9948C115.827 24.9948 116.37 24.8449 116.826 24.5478C117.284 24.2298 117.648 23.7937 117.878 23.2857C118.14 22.76 118.271 22.1641 118.271 21.4979C118.271 20.8326 118.14 20.2366 117.878 19.711C117.632 19.1675 117.282 18.7458 116.826 18.4488C116.37 18.133 115.827 17.9756 115.196 17.9756ZM101.775 28.2537V14.7682H105.877V28.2537H101.775ZM103.826 13.2437C103.177 13.2437 102.617 13.0076 102.144 12.5344C101.67 12.0612 101.433 11.4999 101.433 10.8515C101.433 10.2031 101.67 9.64278 102.144 9.16959C102.617 8.6786 103.177 8.4331 103.826 8.4331C104.474 8.4331 105.035 8.6786 105.508 9.16959C105.982 9.64278 106.218 10.2031 106.218 10.8515C106.218 11.4999 105.982 12.0603 105.508 12.5344C105.035 13.0076 104.474 13.2437 103.826 13.2437ZM92.8625 28.5695C91.4785 28.5695 90.2342 28.2631 89.1295 27.6493C88.0457 27.0553 87.1388 26.1846 86.5011 25.126C85.8705 24.0568 85.5548 22.8565 85.5548 21.5241C85.5548 20.1748 85.8705 18.9745 86.5011 17.9232C87.1388 16.8645 88.0457 15.9938 89.1295 15.3998C90.2342 14.7682 91.4785 14.4534 92.8625 14.4534C94.2474 14.4534 95.4824 14.7682 96.5693 15.3998C97.6492 15.9897 98.5486 16.8619 99.1714 17.9232C99.8198 18.9745 100.144 20.1748 100.144 21.5241C100.144 22.8565 99.8198 24.0568 99.1714 25.126C98.5486 26.1872 97.6492 27.0594 96.5693 27.6493C95.4655 28.2631 94.2296 28.5695 92.8625 28.5695ZM92.8625 25.021C93.5109 25.021 94.0722 24.8627 94.5454 24.5478C95.0187 24.2324 95.3996 23.7968 95.6492 23.2857C95.9125 22.76 96.0437 22.1641 96.0437 21.4979C96.0437 20.8494 95.9125 20.2629 95.6492 19.7363C95.3995 19.2255 95.0186 18.7902 94.5454 18.4751C94.0722 18.1593 93.5109 18.0019 92.8625 18.0019C92.2141 18.0019 91.6444 18.1593 91.1543 18.4751C90.6808 18.7905 90.2996 19.2261 90.0496 19.7372C89.7819 20.2853 89.647 20.8888 89.6561 21.4988C89.6561 22.1641 89.7872 22.76 90.0496 23.2857C90.2996 23.7968 90.6809 24.2323 91.1543 24.5478C91.6444 24.8627 92.2141 25.021 92.8625 25.021ZM72.3129 33.5909V30.094H79.0416C79.3049 30.094 79.5242 30.0069 79.6994 29.8316C79.7848 29.7561 79.8526 29.6628 79.8979 29.5582C79.9433 29.4536 79.965 29.3403 79.9617 29.2263V26.256H79.883C79.5502 26.6431 79.1706 26.9874 78.753 27.2811C78.3669 27.5622 77.9284 27.7721 77.4384 27.9126C76.9168 28.0592 76.3769 28.1299 75.8351 28.1225C74.6433 28.1225 73.5741 27.8414 72.6278 27.2811C71.6992 26.7029 70.9627 25.9056 70.4192 24.8889C69.8945 23.8732 69.6312 22.716 69.6312 21.4191C69.6312 20.1401 69.9029 18.9745 70.4464 17.9232C71.0067 16.8718 71.8219 16.0304 72.8911 15.3998C73.9592 14.7682 75.2654 14.4534 76.8078 14.4534C78.2798 14.4534 79.5504 14.7598 80.6195 15.3735C81.6931 15.9563 82.5709 16.8429 83.1429 17.9222C83.7388 19.0091 84.0368 20.2891 84.0368 21.7612V29.647C84.0368 30.8558 83.6779 31.8115 82.9592 32.5124C82.2584 33.2311 81.2857 33.59 80.0414 33.59L72.3129 33.5909ZM76.834 24.7052C77.4646 24.7052 78.0081 24.5647 78.4644 24.2845C78.9147 23.9922 79.2776 23.5836 79.5148 23.102C79.764 22.5951 79.8902 22.0365 79.883 21.4716C79.883 20.841 79.7612 20.2629 79.5157 19.7372C79.2702 19.2115 78.9198 18.7993 78.4635 18.5013C78.0081 18.1855 77.4646 18.0281 76.8331 18.0281C76.2203 18.0281 75.6768 18.1771 75.2036 18.4751C74.7482 18.773 74.3978 19.1759 74.1523 19.6838C73.9077 20.1926 73.785 20.7614 73.785 21.3929C73.785 22.0066 73.9068 22.567 74.1523 23.0758C74.3978 23.5658 74.7482 23.9603 75.2045 24.2583C75.6768 24.5563 76.2203 24.7052 76.834 24.7052ZM61.3489 28.5695C59.965 28.5695 58.7206 28.2631 57.6168 27.6493C56.5327 27.0555 55.6255 26.1848 54.9876 25.126C54.357 24.0568 54.0412 22.8565 54.0412 21.5241C54.0412 20.1748 54.357 18.9745 54.9876 17.9232C55.6255 16.8644 56.5327 15.9936 57.6168 15.3998C58.7206 14.7682 59.965 14.4534 61.3489 14.4534C62.7338 14.4534 63.9688 14.7682 65.0558 15.3998C66.1356 15.9898 67.035 16.8619 67.6578 17.9232C68.3063 18.9745 68.6305 20.1748 68.6305 21.5241C68.6305 22.8565 68.3063 24.0568 67.6578 25.126C67.035 26.1872 66.1356 27.0593 65.0558 27.6493C63.952 28.2631 62.716 28.5695 61.3489 28.5695ZM61.3489 25.021C61.9974 25.021 62.5577 24.8627 63.0318 24.5478C63.5049 24.2322 63.8858 23.7966 64.1356 23.2857C64.398 22.76 64.5292 22.1641 64.5292 21.4979C64.5292 20.8494 64.398 20.2629 64.1356 19.7363C63.8857 19.2256 63.5048 18.7904 63.0318 18.4751C62.5586 18.1593 61.9974 18.0019 61.3489 18.0019C60.7005 18.0019 60.1308 18.1593 59.6408 18.4751C59.1672 18.7905 58.786 19.2261 58.536 19.7372C58.2683 20.2853 58.1335 20.8888 58.1425 21.4988C58.1425 22.1641 58.2737 22.76 58.536 23.2857C58.7861 23.7968 59.1673 24.2323 59.6408 24.5478C60.1308 24.8627 60.7005 25.021 61.3489 25.021ZM48.3001 28.2537C47.1607 28.2537 46.1619 28.0007 45.3036 27.4919C44.4688 27.0079 43.779 26.309 43.3059 25.468C42.8327 24.6265 42.5956 23.697 42.5956 22.6813V9.85267H47.0117V22.9961C47.0117 23.4178 47.1617 23.7851 47.4587 24.1009C47.7567 24.4157 48.124 24.5741 48.5625 24.5741H53.4256V28.2537H48.3001Z" fill="#14424C"/>
</svg>
