<svg width="182" height="43" viewBox="0 0 182 43" fill="none" xmlns="http://www.w3.org/2000/svg">
<path fill-rule="evenodd" clip-rule="evenodd" d="M10.7659 2.6875V43H0V2.6875H10.7659Z" fill="#283841"/>
<path fill-rule="evenodd" clip-rule="evenodd" d="M16.1489 2.6875H39.0265C46.4588 2.6875 52.4839 8.70367 52.4839 16.125C52.4839 23.5464 46.4588 29.5625 39.0265 29.5625H26.9148V43H16.1489V2.6875ZM26.9148 18.8125H39.0265C40.513 18.8125 41.718 17.6093 41.718 16.125C41.718 14.6407 40.513 13.4375 39.0265 13.4375H26.9148V18.8125Z" fill="#283841"/>
<path fill-rule="evenodd" clip-rule="evenodd" d="M92.8561 2.6875V23.5156C92.8561 28.3395 96.7724 32.25 101.603 32.25C106.434 32.25 110.351 28.3395 110.351 23.5156V2.6875H121.117V23.5156C121.117 34.2766 112.381 43 101.603 43C90.8265 43 82.0902 34.2766 82.0902 23.5156V2.6875H92.8561Z" fill="#283841"/>
<path fill-rule="evenodd" clip-rule="evenodd" d="M56.5211 21.5C56.5211 11.1101 64.9562 2.6875 75.3615 2.6875H78.053V13.4375H75.3615C70.9021 13.4375 67.287 17.0472 67.287 21.5V22.8438C67.287 33.9757 58.2494 43 47.1009 43H45.7552V32.25H47.1009C52.3036 32.25 56.5211 28.0387 56.5211 22.8438V21.5Z" fill="#283841"/>
<path d="M181.675 4.03125C181.675 6.25765 179.868 8.0625 177.637 8.0625C175.408 8.0625 173.601 6.25765 173.601 4.03125C173.601 1.80485 175.408 0 177.637 0C179.868 0 181.675 1.80485 181.675 4.03125Z" fill="#283841"/>
<path d="M132.676 43L137.814 21.5195L141.633 34.4422C143.91 42.1498 154.844 42.1498 157.122 34.4422L160.94 21.5195L166.078 43H177.146L169.068 9.22295C167.147 1.1905 155.812 0.89309 153.47 8.81383L149.378 22.6646L145.284 8.81384C142.944 0.893136 131.607 1.19045 129.686 9.22294L121.608 43H132.676Z" fill="#283841"/>
</svg>
