<svg width="175" height="38" viewBox="0 0 175 38" fill="none" xmlns="http://www.w3.org/2000/svg">
<path fill-rule="evenodd" clip-rule="evenodd" d="M55.193 2.37948C55.193 1.06533 56.2699 0 57.5985 0H61.7892C62.7347 0 63.6512 0.32414 64.3823 0.917243L65.6571 1.95132L65.689 1.98008C65.7184 1.97026 65.7478 1.96067 65.7773 1.95132C68.0772 1.22265 70.8677 1.08407 73.7157 1.08407C76.5637 1.08407 79.3542 1.22265 81.6541 1.95132C81.6836 1.96067 81.713 1.97026 81.7424 1.98008L81.7743 1.95132L83.0491 0.917243C83.7802 0.32414 84.6967 0 85.6422 0H89.8329C91.1615 0 92.2384 1.06533 92.2384 2.37948V3.85044C92.2384 4.98852 91.7538 6.07397 90.9033 6.84048L89.8749 7.7674C89.3728 8.21991 88.7702 8.54923 88.1157 8.72877L87.8724 8.79551C88.8254 11.0447 89.3518 13.4488 89.3518 15.3937C89.3518 23.2171 84.4581 26.5959 80.1462 29.5731C76.7505 31.9176 73.7157 34.013 73.7157 37.8338C73.7157 34.013 70.6809 31.9176 67.2852 29.5731C62.9733 26.5959 58.0796 23.2171 58.0796 15.3937C58.0796 13.4488 58.606 11.0447 59.559 8.79551L59.3157 8.72877C58.6612 8.54923 58.0586 8.21991 57.5565 7.7674L56.5281 6.84048C55.6776 6.07397 55.193 4.98852 55.193 3.85044V2.37948ZM76.8429 21.7896C76.8429 22.1634 76.6782 22.5218 76.385 22.7862C76.0918 23.0504 75.694 23.1989 75.2793 23.1989C74.9213 23.1989 74.5759 23.0882 74.2995 22.8879C74.7699 24.1335 75.9739 25.3139 77.8052 23.4157C79.4218 21.652 77.7333 17.9321 76.0883 15.7247C75.5399 14.9889 74.6398 14.6348 73.7157 14.6348C72.7916 14.6348 71.8914 14.9889 71.3431 15.7247C69.6981 17.9321 68.0096 21.652 69.6263 23.4157C71.4575 25.3139 72.6615 24.1335 73.1319 22.8879C72.8556 23.0882 72.5101 23.1989 72.1521 23.1989C71.7374 23.1989 71.3396 23.0504 71.0464 22.7862C70.7532 22.5218 70.5885 22.1634 70.5885 21.7896H76.8429ZM67.7279 10.778H63.3719L66.8048 13.497C67.5602 14.0953 68.6644 13.904 69.1319 13.0939C69.7221 12.0711 68.9381 10.778 67.7279 10.778ZM79.7036 10.778H84.0595L80.6266 13.497C79.8712 14.0953 78.767 13.904 78.2995 13.0939C77.7093 12.0711 78.4933 10.778 79.7036 10.778Z" fill="#72B800"/>
<path d="M97.4275 26.7989H101.287V12.2424H97.4275V26.7989ZM97.4275 9.97236H101.287V6.51056H97.4275V9.97236Z" fill="#355030"/>
<path d="M103.773 31.566H107.632V25.1532H107.689C108.512 26.4017 109.846 27.2246 111.889 27.2246C115.634 27.2246 118.188 24.2451 118.188 19.5348C118.188 14.9948 115.719 11.8451 111.86 11.8451C109.874 11.8451 108.512 12.7815 107.576 14.0584H107.49V12.2424H103.773V31.566ZM111.066 24.0181C108.767 24.0181 107.547 22.2872 107.547 19.6483C107.547 17.0378 108.512 14.9664 110.924 14.9664C113.307 14.9664 114.272 16.8959 114.272 19.6483C114.272 22.4007 113.024 24.0181 111.066 24.0181Z" fill="#355030"/>
<path d="M125.886 27.2246C129.518 27.2246 132.015 25.4653 132.015 22.5426C132.015 19.1376 129.32 18.4566 126.879 17.9458C124.808 17.5202 122.878 17.4067 122.878 16.1582C122.878 15.1083 123.871 14.5408 125.375 14.5408C127.021 14.5408 128.014 15.1083 128.184 16.6689H131.675C131.391 13.7463 129.263 11.8451 125.432 11.8451C122.112 11.8451 119.502 13.349 119.502 16.4987C119.502 19.6767 122.055 20.3861 124.666 20.8969C126.652 21.2941 128.497 21.436 128.497 22.8264C128.497 23.8479 127.532 24.5005 125.829 24.5005C124.098 24.5005 122.907 23.7628 122.651 22.0886H119.076C119.303 25.1815 121.658 27.2246 125.886 27.2246Z" fill="#355030"/>
<path d="M146.667 26.7989V12.2424H142.808V20.6415C142.808 22.571 141.702 23.933 139.886 23.933C138.24 23.933 137.474 22.9966 137.474 21.2941V12.2424H133.643V21.9467C133.643 25.1248 135.459 27.1962 138.694 27.1962C140.737 27.1962 141.872 26.43 142.865 25.0964H142.95V26.7989H146.667Z" fill="#355030"/>
<path d="M149.163 26.7989H153.022V18.3431C153.022 16.4136 154.072 15.165 155.633 15.165C157.052 15.165 157.875 16.0163 157.875 17.6621V26.7989H161.734V18.3431C161.734 16.4136 162.727 15.165 164.344 15.165C165.763 15.165 166.586 16.0163 166.586 17.6621V26.7989H170.445V17.0094C170.445 13.8314 168.714 11.8451 165.649 11.8451C163.805 11.8451 162.273 12.8099 161.28 14.3989H161.223C160.513 12.8666 159.038 11.8451 157.194 11.8451C155.179 11.8451 153.76 12.8666 152.966 14.2003H152.88V12.2424H149.163V26.7989Z" fill="#355030"/>
<path d="M0 26.7989H3.85904V6.51056H0V26.7989Z" fill="#355030"/>
<path d="M13.295 27.2246C17.8067 27.2246 20.8996 23.8763 20.8996 19.5348C20.8996 15.1934 17.8067 11.8451 13.295 11.8451C8.78327 11.8451 5.69036 15.1934 5.69036 19.5348C5.69036 23.8763 8.78327 27.2246 13.295 27.2246ZM13.295 24.2735C10.9115 24.2735 9.6062 22.3724 9.6062 19.5348C9.6062 16.6973 10.9115 14.7678 13.295 14.7678C15.6501 14.7678 16.9838 16.6973 16.9838 19.5348C16.9838 22.3724 15.6501 24.2735 13.295 24.2735Z" fill="#355030"/>
<path d="M29.1062 31.7646C31.2627 31.7646 33.1355 31.2539 34.3556 30.1188C35.4339 29.1257 36.0865 27.7353 36.0865 25.6923V12.2424H32.3694V13.7747H32.3126C31.433 12.5545 30.0993 11.8451 28.2833 11.8451C24.5945 11.8451 21.984 14.6259 21.984 18.9673C21.984 23.3655 25.162 25.9193 28.3968 25.9193C30.2412 25.9193 31.3478 25.1815 32.1991 24.2168H32.2842V25.8058C32.2842 27.7921 31.2343 28.8419 29.0494 28.8419C27.2618 28.8419 26.4389 28.1326 26.1268 27.2246H22.2961C22.6934 30.0621 25.1336 31.7646 29.1062 31.7646ZM29.0494 22.8264C27.0632 22.8264 25.7579 21.3792 25.7579 18.9106C25.7579 16.4703 27.0632 14.938 29.0211 14.938C31.3478 14.938 32.4829 16.7541 32.4829 18.8822C32.4829 21.0387 31.4897 22.8264 29.0494 22.8264Z" fill="#355030"/>
<path d="M45.4666 27.2246C49.9782 27.2246 53.0711 23.8763 53.0711 19.5348C53.0711 15.1934 49.9782 11.8451 45.4666 11.8451C40.9549 11.8451 37.862 15.1934 37.862 19.5348C37.862 23.8763 40.9549 27.2246 45.4666 27.2246ZM45.4666 24.2735C43.083 24.2735 41.7778 22.3724 41.7778 19.5348C41.7778 16.6973 43.083 14.7678 45.4666 14.7678C47.8217 14.7678 49.1553 16.6973 49.1553 19.5348C49.1553 22.3724 47.8217 24.2735 45.4666 24.2735Z" fill="#355030"/>
<path d="M170.271 9.06434C170.271 8.41136 170.799 7.88203 171.453 7.88203H173.818C174.47 7.88203 175 8.41136 175 9.06434C175 9.71726 174.47 10.2467 173.818 10.2467H171.453C170.799 10.2467 170.271 9.71726 170.271 9.06434Z" fill="#355030"/>
</svg>
